<svg xmlns="http://www.w3.org/2000/svg" xmlns:xlink="http://www.w3.org/1999/xlink" viewBox="0 0 114.43 148.12"><defs><style>.cls-1{font-size:36.54px;font-family:Montserrat-Medium, Montserrat Medium;font-weight:500;}.cls-1,.cls-3{fill:#fff;}.cls-2{fill:none;}.cls-4{opacity:0.5;fill:url(#linear-gradient);}</style><linearGradient id="linear-gradient" x1="2325.63" y1="-957.02" x2="2325.63" y2="-1043.08" gradientTransform="translate(-2253.19 1046.42)" gradientUnits="userSpaceOnUse"><stop offset="0" stop-color="#ffd662"/><stop offset="1" stop-color="#00b8be"/></linearGradient></defs><title>Asset 2</title><g id="Layer_2" data-name="Layer 2"><g id="Layer_1-2" data-name="Layer 1"><text class="cls-1" transform="translate(1.31 138.99)">BACK</text><path class="cls-2" d="M17.55,48.52h16.9a2.4,2.4,0,0,1,2.4,2.39V89.58h17.2V44.21H33a2.57,2.57,0,0,1-1.81-4.39L52.2,19l-2.45-2.42Z"/><path class="cls-2" d="M3.31,56.32H16.18a2.4,2.4,0,0,1,2.39,2.4V89.58H34.08V51.29H16.63a2.4,2.4,0,0,1-1.69-4.1l15-14.9-1.21-1.2Z"/><path class="cls-3" d="M34.08,90v-.37H18.57V58.72a2.4,2.4,0,0,0-2.39-2.4H3.31L28.76,31.09,30,32.29l2-1.95-1.5-1.48a2.4,2.4,0,0,0-3.37,0L.71,55A2.39,2.39,0,0,0,2.4,59.09H15.8V90a2.4,2.4,0,0,0,2.39,2.4H36.47A2.4,2.4,0,0,1,34.08,90Z"/><path class="cls-3" d="M54.05,90v-.37H36.85V50.91a2.4,2.4,0,0,0-2.4-2.39H17.55l32.2-31.94L52.2,19l2-1.95-2.73-2.7a2.4,2.4,0,0,0-3.37,0l-16.13,16-2,1.95-15,14.9a2.4,2.4,0,0,0,1.69,4.1H34.08V90a2.4,2.4,0,0,0,2.39,2.4H55.71A2.58,2.58,0,0,1,54.05,90Z"/><path class="cls-3" d="M113.67,39.82,74.23.74a2.57,2.57,0,0,0-3.61,0L54.17,17.05,52.2,19l-21,20.82A2.57,2.57,0,0,0,33,44.21h21V90a2.58,2.58,0,0,0,1.66,2.4,2.77,2.77,0,0,0,.91.17H88.05A2.58,2.58,0,0,0,90.62,90V44.21h21.24a2.57,2.57,0,0,0,1.81-4.39ZM87.5,89.4H57.17V43.66a2.57,2.57,0,0,0-2.57-2.57H34.35L72.43,3.34l38.09,37.75H90.06a2.57,2.57,0,0,0-2.56,2.57Z"/><path class="cls-4" d="M87.5,89.4H57.17V43.66a2.57,2.57,0,0,0-2.57-2.57H34.35L72.43,3.34l38.09,37.75H90.06a2.57,2.57,0,0,0-2.56,2.57Z"/></g></g></svg>