<svg xmlns="http://www.w3.org/2000/svg" xmlns:xlink="http://www.w3.org/1999/xlink" viewBox="0 0 696.46 359.69"><defs><style>.cls-1{fill:none;}.cls-2{font-size:156px;font-family:Gilroy-Medium;font-weight:500;}.cls-2,.cls-5{fill:#fff;}.cls-3{clip-path:url(#clip-path);}.cls-4{clip-path:url(#clip-path-2);}.cls-6{clip-path:url(#clip-path-3);}.cls-7{clip-path:url(#clip-path-4);}.cls-8{clip-path:url(#clip-path-5);}.cls-9{clip-path:url(#clip-path-6);}.cls-10{clip-path:url(#clip-path-7);}.cls-11{clip-path:url(#clip-path-8);}</style><clipPath id="clip-path" transform="translate(-959.73 -471.85)"><polygon class="cls-1" points="959.73 635.94 959.73 828.41 1062.68 828.41 1062.68 761 1086.97 761.01 1086.97 675.47 1120.42 675.33 1120.42 635.94 959.73 635.94"/></clipPath><clipPath id="clip-path-2" transform="translate(-959.73 -471.85)"><rect class="cls-1" width="2608.83" height="1467.47"/></clipPath><clipPath id="clip-path-3" transform="translate(-959.73 -471.85)"><rect class="cls-1" x="1152.96" y="635.94" width="100.48" height="192.47"/></clipPath><clipPath id="clip-path-4" transform="translate(-959.73 -471.85)"><rect class="cls-1" x="1526.65" y="635.94" width="100.48" height="192.47"/></clipPath><clipPath id="clip-path-5" transform="translate(-959.73 -471.85)"><polygon class="cls-1" points="960.18 635.83 960.18 828.3 1063.12 828.3 1063.12 760.89 1087.41 760.9 1087.41 675.35 1120.86 675.22 1120.86 635.83 960.18 635.83"/></clipPath><clipPath id="clip-path-6" transform="translate(-959.73 -471.85)"><rect class="cls-1" x="960.18" y="582.17" width="715.65" height="313.99"/></clipPath><clipPath id="clip-path-7" transform="translate(-959.73 -471.85)"><rect class="cls-1" x="1153.4" y="635.83" width="100.48" height="192.47"/></clipPath><clipPath id="clip-path-8" transform="translate(-959.73 -471.85)"><rect class="cls-1" x="1527.1" y="635.83" width="100.48" height="192.47"/></clipPath></defs><title>FujiLogo</title><g id="Layer_2" data-name="Layer 2"><g id="Layer_1-2" data-name="Layer 1"><text class="cls-2" transform="translate(0 132.6)">INVEST IN</text><g class="cls-3"><g class="cls-4"><rect class="cls-5" x="8.71" y="164.09" width="40.72" height="191.61"/><polygon class="cls-5" points="53.46 203.61 24.48 203.61 24.48 164.09 153.34 164.09 153.34 355.7 151.18 355.7 151.18 203.61 146.87 203.61 146.87 355.7 144.72 355.7 144.72 203.61 140.4 203.61 140.4 355.7 138.01 355.7 138.01 203.61 133.7 203.61 133.7 355.7 131.54 355.7 131.54 203.61 127.23 203.61 127.23 355.7 125.08 355.7 125.08 203.61 120.76 203.61 120.76 355.7 118.61 355.7 118.61 203.61 114.3 203.61 114.3 355.7 111.9 355.7 111.9 203.61 107.59 203.61 107.59 355.7 105.43 355.7 105.43 203.61 101.12 203.61 101.12 355.7 98.97 355.7 98.97 203.61 94.66 203.61 94.66 355.7 92.5 355.7 92.5 203.61 88.19 203.61 88.19 355.7 85.79 355.7 85.79 203.61 81.48 203.61 81.48 355.7 79.33 355.7 79.33 203.61 75.02 203.61 75.02 355.7 73.1 355.7 73.1 203.61 68.79 203.61 68.79 355.7 66.63 355.7 66.63 203.61 62.32 203.61 62.32 355.7 59.93 355.7 59.93 203.61 55.62 203.61 55.62 355.7 53.46 355.7 53.46 203.61"/><rect class="cls-5" x="49.22" y="249.96" width="103.43" height="39.19"/></g></g><g class="cls-6"><polygon class="cls-5" points="293.34 317.05 322.32 317.05 322.32 356.56 193.46 356.56 193.46 164.95 195.62 164.95 195.62 317.05 199.93 317.05 199.93 164.95 202.09 164.95 202.09 317.05 206.4 317.05 206.4 164.95 208.79 164.95 208.79 317.05 213.1 317.05 213.1 164.95 215.26 164.95 215.26 317.05 219.57 317.05 219.57 164.95 221.73 164.95 221.73 317.05 226.04 317.05 226.04 164.95 228.19 164.95 228.19 317.05 232.5 317.05 232.5 164.95 234.9 164.95 234.9 317.05 239.21 317.05 239.21 164.95 241.37 164.95 241.37 317.05 245.68 317.05 245.68 164.95 247.83 164.95 247.83 317.05 252.15 317.05 252.15 164.95 254.3 164.95 254.3 317.05 258.61 317.05 258.61 164.95 261.01 164.95 261.01 317.05 265.32 317.05 265.32 164.95 267.47 164.95 267.47 317.05 271.79 317.05 271.79 164.95 273.7 164.95 273.7 317.05 278.01 317.05 278.01 164.95 280.17 164.95 280.17 317.05 284.48 317.05 284.48 164.95 286.88 164.95 286.88 317.05 291.19 317.05 291.19 164.95 293.34 164.95 293.34 317.05"/></g><g class="cls-7"><polygon class="cls-5" points="667.03 203.61 696.01 203.61 696.01 164.09 567.16 164.09 567.16 355.7 569.31 355.7 569.31 203.61 573.62 203.61 573.62 355.7 575.78 355.7 575.78 203.61 580.09 203.61 580.09 355.7 582.48 355.7 582.48 203.61 586.8 203.61 586.8 355.7 588.95 355.7 588.95 203.61 593.26 203.61 593.26 355.7 595.42 355.7 595.42 203.61 599.73 203.61 599.73 355.7 601.88 355.7 601.88 203.61 606.2 203.61 606.2 355.7 608.59 355.7 608.59 203.61 612.9 203.61 612.9 355.7 615.06 355.7 615.06 203.61 619.37 203.61 619.37 355.7 621.53 355.7 621.53 203.61 625.84 203.61 625.84 355.7 627.99 355.7 627.99 203.61 632.3 203.61 632.3 355.7 634.7 355.7 634.7 203.61 639.01 203.61 639.01 355.7 641.17 355.7 641.17 203.61 645.48 203.61 645.48 355.7 647.39 355.7 647.39 203.61 651.71 203.61 651.71 355.7 653.86 355.7 653.86 203.61 658.17 203.61 658.17 355.7 660.57 355.7 660.57 203.61 664.88 203.61 664.88 355.7 667.03 355.7 667.03 203.61"/></g><path class="cls-5" d="M1482.73,636.18l.25,98a83.63,83.63,0,0,1-3.91,27.14q-1,2.7-6.12,14.67a89.38,89.38,0,0,1-33.25,39.37,96.88,96.88,0,0,1-54.52,16.13q-37.41,0-64.79-26.65-28.61-27.87-28.6-68.94v2.45h.24V708.55h2.2v29.84h4.16v-45h2.2v45h4.64V680.92h2.2v57.72h4.65V670.9h2.2v67.74h4.65V664.3h2.2v74.34h4.4v-80H1328v80h4.4V652.32h2.45v99.75a45.87,45.87,0,0,0,4.4,10.27V649.14h2.2V766a55.3,55.3,0,0,0,4.64,5.62V646h2.2V774.08a41.42,41.42,0,0,0,4.65,4.15V642.29h2.2V779.94a25.82,25.82,0,0,0,4.64,3.18V639.85h2.2V784.34c2,1,3.51,1.72,4.65,2.2V637.65h2.2V787.52q2.94,1,4.65,1.47v-153h2.2V789.72l4.4.74V635.94h2.44v155.5h4.4V635.94h68.95Zm-93.64,155.26h4.65V674.81h-4.65Zm11.49-.74V674.81h-4.64V791.44c1.14-.17,2.69-.41,4.64-.74m6.85-115.89h-4.64V790a27.83,27.83,0,0,0,4.64-1.23Zm6.84,110.76V674.81h-4.64v113c1.14-.49,2.69-1.23,4.64-2.2m2.21-110.76V784.34a25.29,25.29,0,0,0,4.64-3.17V674.81Zm6.84,104.4a28.08,28.08,0,0,0,4.4-4.4v-100h-4.4Zm11.25-104.4h-4.4v97.07a43,43,0,0,0,4.4-7.44Zm2.44,86.31c1.79-3,2.69-5.62,2.69-7.8V674.81H1437Z" transform="translate(-959.73 -471.85)"/><g class="cls-8"><g class="cls-9"><rect class="cls-5" x="9.16" y="163.98" width="40.72" height="191.61"/><polygon class="cls-5" points="53.9 203.5 24.92 203.5 24.92 163.98 153.78 163.98 153.78 355.59 151.63 355.59 151.63 203.5 147.31 203.5 147.31 355.59 145.16 355.59 145.16 203.5 140.85 203.5 140.85 355.59 138.45 355.59 138.45 203.5 134.14 203.5 134.14 355.59 131.99 355.59 131.99 203.5 127.67 203.5 127.67 355.59 125.52 355.59 125.52 203.5 121.21 203.5 121.21 355.59 119.05 355.59 119.05 203.5 114.74 203.5 114.74 355.59 112.35 355.59 112.35 203.5 108.03 203.5 108.03 355.59 105.88 355.59 105.88 203.5 101.57 203.5 101.57 355.59 99.41 355.59 99.41 203.5 95.1 203.5 95.1 355.59 92.94 355.59 92.94 203.5 88.63 203.5 88.63 355.59 86.24 355.59 86.24 203.5 81.93 203.5 81.93 355.59 79.77 355.59 79.77 203.5 75.46 203.5 75.46 355.59 73.54 355.59 73.54 203.5 69.23 203.5 69.23 355.59 67.08 355.59 67.08 203.5 62.77 203.5 62.77 355.59 60.37 355.59 60.37 203.5 56.06 203.5 56.06 355.59 53.9 355.59 53.9 203.5"/><rect class="cls-5" x="49.67" y="249.85" width="103.43" height="39.19"/></g></g><g class="cls-10"><polygon class="cls-5" points="293.79 316.93 322.77 316.93 322.77 356.45 193.91 356.45 193.91 164.84 196.06 164.84 196.06 316.93 200.38 316.93 200.38 164.84 202.53 164.84 202.53 316.93 206.84 316.93 206.84 164.84 209.24 164.84 209.24 316.93 213.55 316.93 213.55 164.84 215.71 164.84 215.71 316.93 220.02 316.93 220.02 164.84 222.17 164.84 222.17 316.93 226.48 316.93 226.48 164.84 228.64 164.84 228.64 316.93 232.95 316.93 232.95 164.84 235.34 164.84 235.34 316.93 239.66 316.93 239.66 164.84 241.81 164.84 241.81 316.93 246.12 316.93 246.12 164.84 248.28 164.84 248.28 316.93 252.59 316.93 252.59 164.84 254.75 164.84 254.75 316.93 259.06 316.93 259.06 164.84 261.45 164.84 261.45 316.93 265.76 316.93 265.76 164.84 267.92 164.84 267.92 316.93 272.23 316.93 272.23 164.84 274.15 164.84 274.15 316.93 278.46 316.93 278.46 164.84 280.61 164.84 280.61 316.93 284.93 316.93 284.93 164.84 287.32 164.84 287.32 316.93 291.63 316.93 291.63 164.84 293.79 164.84 293.79 316.93"/></g><g class="cls-11"><polygon class="cls-5" points="667.48 203.5 696.46 203.5 696.46 163.98 567.6 163.98 567.6 355.59 569.76 355.59 569.76 203.5 574.07 203.5 574.07 355.59 576.22 355.59 576.22 203.5 580.53 203.5 580.53 355.59 582.93 355.59 582.93 203.5 587.24 203.5 587.24 355.59 589.4 355.59 589.4 203.5 593.71 203.5 593.71 355.59 595.86 355.59 595.86 203.5 600.17 203.5 600.17 355.59 602.33 355.59 602.33 203.5 606.64 203.5 606.64 355.59 609.04 355.59 609.04 203.5 613.35 203.5 613.35 355.59 615.5 355.59 615.5 203.5 619.82 203.5 619.82 355.59 621.97 355.59 621.97 203.5 626.28 203.5 626.28 355.59 628.44 355.59 628.44 203.5 632.75 203.5 632.75 355.59 635.14 355.59 635.14 203.5 639.46 203.5 639.46 355.59 641.61 355.59 641.61 203.5 645.92 203.5 645.92 355.59 647.84 355.59 647.84 203.5 652.15 203.5 652.15 355.59 654.3 355.59 654.3 203.5 658.62 203.5 658.62 355.59 661.01 355.59 661.01 203.5 665.32 203.5 665.32 355.59 667.48 355.59 667.48 203.5"/></g><g class="cls-9"><path class="cls-5" d="M1483.18,636.07l.24,98a83.63,83.63,0,0,1-3.91,27.14q-1,2.7-6.11,14.67a89.3,89.3,0,0,1-33.25,39.36,96.83,96.83,0,0,1-54.52,16.14q-37.41,0-64.79-26.65-28.62-27.87-28.61-68.95v2.46h.24V708.44h2.21v29.84h4.15v-45h2.2v45h4.65V680.81h2.2v57.71h4.64V670.79h2.2v67.73h4.65V664.19h2.2v74.33h4.4v-80h2.45v80h4.4V652.21h2.44V752a46.81,46.81,0,0,0,4.4,10.27V649h2.2V765.9a56.47,56.47,0,0,0,4.65,5.62V645.85h2.2V774a40,40,0,0,0,4.64,4.16V642.18h2.2V779.83a25.92,25.92,0,0,0,4.65,3.18V639.74h2.2V784.23q2.92,1.47,4.64,2.2V637.54h2.2V787.41q2.94,1,4.65,1.47v-153h2.2V789.61l4.4.73V635.83h2.45V791.32h4.4V635.83h68.94Zm-93.64,155.25h4.64V674.7h-4.64Zm11.49-.73V674.7h-4.65V791.32c1.14-.16,2.69-.41,4.65-.73m6.84-115.89h-4.64V789.86a27.34,27.34,0,0,0,4.64-1.23Zm6.85,110.75V674.7h-4.64V787.65c1.14-.48,2.68-1.22,4.64-2.2m2.2-110.75V784.23a25.31,25.31,0,0,0,4.64-3.18V674.7Zm6.84,104.4a28.61,28.61,0,0,0,4.41-4.4v-100h-4.41ZM1435,674.7h-4.4v97.06a42.67,42.67,0,0,0,4.4-7.43Zm2.45,86.31q2.67-4.53,2.69-7.8V674.7h-2.69Z" transform="translate(-959.73 -471.85)"/></g></g></g></svg>