<svg xmlns="http://www.w3.org/2000/svg" xmlns:xlink="http://www.w3.org/1999/xlink" viewBox="0 0 103.93 150.96"><defs><style>.cls-1{font-size:36px;font-family:Montserrat-Medium, Montserrat Medium;font-weight:500;}.cls-1,.cls-3{fill:#fff;}.cls-2{opacity:0.5;fill:url(#linear-gradient);}</style><linearGradient id="linear-gradient" x1="45.55" y1="60.93" x2="45.55" gradientUnits="userSpaceOnUse"><stop offset="0" stop-color="#aa7b42"/><stop offset="0.3" stop-color="#a89f67"/><stop offset="0.62" stop-color="#5a9154"/><stop offset="1" stop-color="#2bcf82"/></linearGradient></defs><title>Asset 1</title><g id="Layer_2" data-name="Layer 2"><g id="Layer_1-2" data-name="Layer 1"><text class="cls-1" transform="translate(9 141.96)">HOME</text><polyline class="cls-2" points="0 0 91.11 0 46.09 60.92 0 0 0 0"/><path class="cls-3" d="M81.61,58.93c-1.49,2-2.55,2.13-4.48.4s-3.9-3.57-6.2-5.67v2q0,14.92,0,29.85c0,4.85-2.66,7.58-7.48,7.59q-17.78,0-35.54,0c-4.75,0-7.4-2.72-7.4-7.48q0-15,0-30v-2c-.54.39-.88.59-1.17.85Q16.67,56.83,14,59.24c-1.66,1.5-2.87,1.67-3.93.55s-.75-2.42.83-3.86L31,37.73,43.5,26.4c1.71-1.55,2.67-1.59,4.34,0q16.27,14.9,32.53,29.81a14.6,14.6,0,0,1,1.24,1.47ZM56,88.62c2.87,0,5.51.08,8.15,0,1.56-.06,2.21-1,2.21-2.8,0-11.73,0-23.46,0-35.19a2.92,2.92,0,0,0-.85-1.9c-2.25-2.18-4.6-4.27-6.91-6.38L45.79,30.63a2.85,2.85,0,0,0-.51.3q-9.87,8.93-19.69,17.88a2.5,2.5,0,0,0-.6,1.68Q24.93,65.74,25,81c0,1.67,0,3.35,0,5,0,1.18.44,2.36,1.69,2.43,2.88.16,5.77,0,8.75,0v-1.9c0-5.41,0-10.82,0-16.22,0-4.32,2.81-7.05,7.12-7.14,1.73,0,3.46,0,5.19,0,5.69,0,8.25,2.54,8.25,8.18Zm-4.55-.07c0-6.27,0-12.43,0-18.59,0-1.47-1.07-2.18-2.5-2.21-1.73,0-3.46,0-5.19,0-3.24,0-3.82.56-3.82,3.73V88.55Z"/></g></g></svg>