<svg xmlns="http://www.w3.org/2000/svg" xmlns:xlink="http://www.w3.org/1999/xlink" viewBox="0 0 226.37 210.36"><defs><style>.cls-1{opacity:0.5;fill:url(#linear-gradient);}.cls-2,.cls-4{fill:#fff;}.cls-3{fill:none;}.cls-4{font-size:49.11px;font-family:Montserrat-SemiBold, Montserrat;font-weight:600;}</style><linearGradient id="linear-gradient" x1="127.27" y1="114.47" x2="127.27" y2="4.05" gradientUnits="userSpaceOnUse"><stop offset="0" stop-color="#ffd662"/><stop offset="1" stop-color="#00b8be"/></linearGradient></defs><title>Asset 1</title><g id="Layer_2" data-name="Layer 2"><g id="Layer_1-2" data-name="Layer 1"><path class="cls-1" d="M178.52,80l-16.85,2.91a88.33,88.33,0,0,0,3.1-21.69h17.76A54.83,54.83,0,0,1,178.52,80ZM72,61.24H89.77a88.33,88.33,0,0,0,3.1,21.69L76,80A54.83,54.83,0,0,1,72,61.24ZM76,38.5l16.85-2.91a88.41,88.41,0,0,0-3.1,21.7H72A54.88,54.88,0,0,1,76,38.5Zm53.23-6.78a135.48,135.48,0,0,1,21.17,1.93l7,1.2a84.83,84.83,0,0,1,3.42,22.44H129.25Zm21.85-2a139.22,139.22,0,0,0-21.85-2V4.06C140.57,5.15,150.41,15.52,156,30.61Zm-25.8-2a139.12,139.12,0,0,0-21.85,2l-4.89.84C104.13,15.51,114,5.14,125.3,4.05Zm-21.18,5.88a135.49,135.49,0,0,1,21.18-1.93V57.29H93.72a84.44,84.44,0,0,1,3.43-22.44ZM93.72,61.24H125.3V86.81a136.72,136.72,0,0,1-21.18-1.94l-7-1.2A84.42,84.42,0,0,1,93.72,61.24Zm9.73,27.53a141.56,141.56,0,0,0,21.85,2v23.7C114,113.38,104.13,103,98.56,87.92Zm25.8,2a141.54,141.54,0,0,0,21.84-2l4.89-.85c-5.57,15.09-15.41,25.47-26.73,26.55Zm21.17-5.9a136.71,136.71,0,0,1-21.17,1.94V61.24h31.57a84.82,84.82,0,0,1-3.42,22.43Zm14.35-27.58a88.41,88.41,0,0,0-3.1-21.7l16.85,2.91a54.88,54.88,0,0,1,4,18.79Zm11.75-23.14-16.15-2.79A54.36,54.36,0,0,0,144.65,6.77,55.53,55.53,0,0,1,176.52,34.15ZM109.89,6.77A54.45,54.45,0,0,0,94.17,31.36L78,34.15A55.53,55.53,0,0,1,109.89,6.77ZM78,84.38l16.15,2.78a54.53,54.53,0,0,0,15.72,24.6A55.6,55.6,0,0,1,78,84.38Zm66.63,27.38a54.45,54.45,0,0,0,15.72-24.6l16.15-2.78A55.6,55.6,0,0,1,144.65,111.76Z"/><path class="cls-2" d="M127.27,0a59.26,59.26,0,1,0,59.26,59.26A59.26,59.26,0,0,0,127.27,0Zm51.25,80-16.85,2.91a88.33,88.33,0,0,0,3.1-21.69h17.76A54.83,54.83,0,0,1,178.52,80ZM72,61.24H89.77a88.33,88.33,0,0,0,3.1,21.69L76,80A54.83,54.83,0,0,1,72,61.24ZM76,38.5l16.85-2.91a88.41,88.41,0,0,0-3.1,21.7H72A54.88,54.88,0,0,1,76,38.5Zm53.23-6.78a135.48,135.48,0,0,1,21.17,1.93l7,1.2a84.83,84.83,0,0,1,3.42,22.44H129.25Zm21.85-2a139.22,139.22,0,0,0-21.85-2V4.06C140.57,5.15,150.41,15.52,156,30.61Zm-25.8-2a139.12,139.12,0,0,0-21.85,2l-4.89.84C104.13,15.51,114,5.14,125.3,4.05Zm-21.18,5.88a135.49,135.49,0,0,1,21.18-1.93V57.29H93.72a84.44,84.44,0,0,1,3.43-22.44ZM93.72,61.24H125.3V86.81a136.72,136.72,0,0,1-21.18-1.94l-7-1.2A84.42,84.42,0,0,1,93.72,61.24Zm9.73,27.53a141.56,141.56,0,0,0,21.85,2v23.7C114,113.38,104.13,103,98.56,87.92Zm25.8,2a141.54,141.54,0,0,0,21.84-2l4.89-.85c-5.57,15.09-15.41,25.47-26.73,26.55Zm21.17-5.9a136.71,136.71,0,0,1-21.17,1.94V61.24h31.57a84.82,84.82,0,0,1-3.42,22.43Zm14.35-27.58a88.41,88.41,0,0,0-3.1-21.7l16.85,2.91a54.88,54.88,0,0,1,4,18.79Zm11.75-23.14-16.15-2.79A54.36,54.36,0,0,0,144.65,6.77,55.53,55.53,0,0,1,176.52,34.15ZM109.89,6.77A54.45,54.45,0,0,0,94.17,31.36L78,34.15A55.53,55.53,0,0,1,109.89,6.77ZM78,84.38l16.15,2.78a54.53,54.53,0,0,0,15.72,24.6A55.6,55.6,0,0,1,78,84.38Zm66.63,27.38a54.45,54.45,0,0,0,15.72-24.6l16.15-2.78A55.6,55.6,0,0,1,144.65,111.76Z"/><path class="cls-3" d="M52,77.48a57,57,0,0,0,102.58,34.38A59.26,59.26,0,0,1,74.67,32,57,57,0,0,0,52,77.48Z"/><path class="cls-2" d="M109.05,134.54A57,57,0,0,1,74.67,32a59.09,59.09,0,0,1,5.58-8.76,61.44,61.44,0,1,0,83.07,83.07,59.51,59.51,0,0,1-8.75,5.58A57,57,0,0,1,109.05,134.54Z"/><text class="cls-4" transform="translate(0 197.34)">ENGLISH</text></g></g></svg>