<svg xmlns="http://www.w3.org/2000/svg" xmlns:xlink="http://www.w3.org/1999/xlink" viewBox="0 0 179.36 209.62"><defs><style>.cls-1{opacity:0.5;fill:url(#linear-gradient);}.cls-2,.cls-4{fill:#fff;}.cls-3{fill:none;}.cls-4{font-size:49.11px;font-family:Montserrat-SemiBold, Montserrat SemiBold;font-weight:600;}</style><linearGradient id="linear-gradient" x1="80.27" y1="114.47" x2="80.27" y2="4.05" gradientUnits="userSpaceOnUse"><stop offset="0" stop-color="#ffd662"/><stop offset="1" stop-color="#00b8be"/></linearGradient></defs><title>Asset 1</title><g id="Layer_2" data-name="Layer 2"><g id="Layer_1-2" data-name="Layer 1"><path class="cls-1" d="M131.52,80l-16.85,2.91a88.33,88.33,0,0,0,3.1-21.69h17.76A54.83,54.83,0,0,1,131.52,80ZM25,61.24H42.77a88.33,88.33,0,0,0,3.1,21.69L29,80A55.05,55.05,0,0,1,25,61.24ZM29,38.5l16.86-2.91a88.41,88.41,0,0,0-3.1,21.7H25A55.11,55.11,0,0,1,29,38.5Zm53.23-6.78a135.49,135.49,0,0,1,21.18,1.93l7,1.2a84.84,84.84,0,0,1,3.43,22.44H82.24Zm21.85-2a139.12,139.12,0,0,0-21.85-2V4.06C93.57,5.15,103.4,15.52,109,30.61Zm-25.8-2a139.22,139.22,0,0,0-21.85,2l-4.89.84C57.13,15.51,67,5.14,78.29,4.05ZM57.12,33.65a135.26,135.26,0,0,1,21.17-1.93V57.29H46.72a84.83,84.83,0,0,1,3.42-22.44ZM46.72,61.24H78.29V86.81a136.48,136.48,0,0,1-21.17-1.94l-7-1.2A84.82,84.82,0,0,1,46.72,61.24Zm9.72,27.53a141.67,141.67,0,0,0,21.85,2v23.7C67,113.38,57.13,103,51.55,87.92Zm25.8,2a141.56,141.56,0,0,0,21.85-2l4.89-.85C103.4,103,93.57,113.39,82.24,114.47Zm21.18-5.9a136.72,136.72,0,0,1-21.18,1.94V61.24h31.58a84.83,84.83,0,0,1-3.43,22.43Zm14.35-27.58a88.41,88.41,0,0,0-3.1-21.7l16.85,2.91a54.88,54.88,0,0,1,4,18.79Zm11.75-23.14-16.15-2.79A54.45,54.45,0,0,0,97.65,6.77,55.53,55.53,0,0,1,129.52,34.15ZM62.88,6.77A54.43,54.43,0,0,0,47.17,31.36L31,34.15A55.56,55.56,0,0,1,62.88,6.77ZM31,84.38l16.16,2.78a54.51,54.51,0,0,0,15.71,24.6A55.63,55.63,0,0,1,31,84.38Zm66.64,27.38a54.53,54.53,0,0,0,15.72-24.6l16.15-2.78A55.6,55.6,0,0,1,97.65,111.76Z"/><path class="cls-2" d="M80.27,0a59.26,59.26,0,1,0,59.26,59.26A59.26,59.26,0,0,0,80.27,0Zm51.25,80-16.85,2.91a88.33,88.33,0,0,0,3.1-21.69h17.76A54.83,54.83,0,0,1,131.52,80ZM25,61.24H42.77a88.33,88.33,0,0,0,3.1,21.69L29,80A55.05,55.05,0,0,1,25,61.24ZM29,38.5l16.86-2.91a88.41,88.41,0,0,0-3.1,21.7H25A55.11,55.11,0,0,1,29,38.5Zm53.23-6.78a135.49,135.49,0,0,1,21.18,1.93l7,1.2a84.84,84.84,0,0,1,3.43,22.44H82.24Zm21.85-2a139.12,139.12,0,0,0-21.85-2V4.06C93.57,5.15,103.4,15.52,109,30.61Zm-25.8-2a139.22,139.22,0,0,0-21.85,2l-4.89.84C57.13,15.51,67,5.14,78.29,4.05ZM57.12,33.65a135.26,135.26,0,0,1,21.17-1.93V57.29H46.72a84.83,84.83,0,0,1,3.42-22.44ZM46.72,61.24H78.29V86.81a136.48,136.48,0,0,1-21.17-1.94l-7-1.2A84.82,84.82,0,0,1,46.72,61.24Zm9.72,27.53a141.67,141.67,0,0,0,21.85,2v23.7C67,113.38,57.13,103,51.55,87.92Zm25.8,2a141.56,141.56,0,0,0,21.85-2l4.89-.85C103.4,103,93.57,113.39,82.24,114.47Zm21.18-5.9a136.72,136.72,0,0,1-21.18,1.94V61.24h31.58a84.83,84.83,0,0,1-3.43,22.43Zm14.35-27.58a88.41,88.41,0,0,0-3.1-21.7l16.85,2.91a54.88,54.88,0,0,1,4,18.79Zm11.75-23.14-16.15-2.79A54.45,54.45,0,0,0,97.65,6.77,55.53,55.53,0,0,1,129.52,34.15ZM62.88,6.77A54.43,54.43,0,0,0,47.17,31.36L31,34.15A55.56,55.56,0,0,1,62.88,6.77ZM31,84.38l16.16,2.78a54.51,54.51,0,0,0,15.71,24.6A55.63,55.63,0,0,1,31,84.38Zm66.64,27.38a54.53,54.53,0,0,0,15.72-24.6l16.15-2.78A55.6,55.6,0,0,1,97.65,111.76Z"/><path class="cls-3" d="M5,77.48a57,57,0,0,0,102.58,34.38A59.26,59.26,0,0,1,27.67,32,57,57,0,0,0,5,77.48Z"/><path class="cls-2" d="M62.05,134.54A57,57,0,0,1,27.67,32a59.85,59.85,0,0,1,5.57-8.76,61.44,61.44,0,1,0,83.08,83.07,59.09,59.09,0,0,1-8.76,5.58A57,57,0,0,1,62.05,134.54Z"/><text class="cls-4" transform="translate(0 197.34)">ENGLISH</text></g></g></svg>