<svg xmlns="http://www.w3.org/2000/svg" xmlns:xlink="http://www.w3.org/1999/xlink" viewBox="0 0 163.94 220.82"><defs><style>.cls-1{opacity:0.5;fill:url(#linear-gradient);}.cls-2,.cls-4{fill:#fff;}.cls-3{fill:none;}.cls-4{font-size:60.03px;font-family:Montserrat-Arabic-Light, Montserrat-Arabic;font-weight:300;}</style><linearGradient id="linear-gradient" x1="92.18" y1="114.47" x2="92.18" y2="4.05" gradientUnits="userSpaceOnUse"><stop offset="0" stop-color="#ffd662"/><stop offset="1" stop-color="#00b8be"/></linearGradient></defs><title>Asset 3</title><g id="Layer_2" data-name="Layer 2"><g id="Layer_1-2" data-name="Layer 1"><path class="cls-1" d="M143.43,80l-16.86,2.91a88.34,88.34,0,0,0,3.11-21.69h17.76A55.06,55.06,0,0,1,143.43,80ZM36.91,61.24H54.67a88.82,88.82,0,0,0,3.11,21.69L40.92,80A55.06,55.06,0,0,1,36.91,61.24Zm4-22.74,16.86-2.91a88.9,88.9,0,0,0-3.11,21.7H36.91A55.12,55.12,0,0,1,40.92,38.5Zm53.23-6.78a135.49,135.49,0,0,1,21.18,1.93l7,1.2a85.25,85.25,0,0,1,3.43,22.44H94.15Zm21.85-2a139.22,139.22,0,0,0-21.85-2V4.06c11.33,1.09,21.16,11.46,26.74,26.55Zm-25.8-2a139.22,139.22,0,0,0-21.85,2l-4.89.84C69,15.51,78.88,5.14,90.2,4.05ZM69,33.65A135.26,135.26,0,0,1,90.2,31.72V57.29H58.62a85.25,85.25,0,0,1,3.43-22.44ZM58.62,61.24H90.2V86.81A136.72,136.72,0,0,1,69,84.87l-7-1.2A85.24,85.24,0,0,1,58.62,61.24Zm9.73,27.53a141.67,141.67,0,0,0,21.85,2v23.7C78.88,113.38,69,103,63.46,87.92Zm25.8,2a141.67,141.67,0,0,0,21.85-2l4.89-.85c-5.58,15.09-15.41,25.47-26.74,26.55Zm21.18-5.9a136.72,136.72,0,0,1-21.18,1.94V61.24h31.58a85.24,85.24,0,0,1-3.43,22.43Zm14.35-27.58a88.42,88.42,0,0,0-3.11-21.7l16.86,2.91a55.12,55.12,0,0,1,4,18.79Zm11.75-23.14-16.16-2.79A54.34,54.34,0,0,0,109.56,6.77,55.53,55.53,0,0,1,141.43,34.15ZM74.79,6.77A54.34,54.34,0,0,0,59.08,31.36L42.92,34.15A55.53,55.53,0,0,1,74.79,6.77ZM42.92,84.38l16.16,2.78a54.43,54.43,0,0,0,15.71,24.6A55.6,55.6,0,0,1,42.92,84.38Zm66.64,27.38a54.43,54.43,0,0,0,15.71-24.6l16.16-2.78A55.6,55.6,0,0,1,109.56,111.76Z"/><path class="cls-2" d="M92.18,0a59.26,59.26,0,1,0,59.26,59.26A59.27,59.27,0,0,0,92.18,0Zm51.25,80-16.86,2.91a88.34,88.34,0,0,0,3.11-21.69h17.76A55.06,55.06,0,0,1,143.43,80ZM36.91,61.24H54.67a88.82,88.82,0,0,0,3.11,21.69L40.92,80A55.06,55.06,0,0,1,36.91,61.24Zm4-22.74,16.86-2.91a88.9,88.9,0,0,0-3.11,21.7H36.91A55.12,55.12,0,0,1,40.92,38.5Zm53.23-6.78a135.49,135.49,0,0,1,21.18,1.93l7,1.2a85.25,85.25,0,0,1,3.43,22.44H94.15Zm21.85-2a139.22,139.22,0,0,0-21.85-2V4.06c11.33,1.09,21.16,11.46,26.74,26.55Zm-25.8-2a139.22,139.22,0,0,0-21.85,2l-4.89.84C69,15.51,78.88,5.14,90.2,4.05ZM69,33.65A135.26,135.26,0,0,1,90.2,31.72V57.29H58.62a85.25,85.25,0,0,1,3.43-22.44ZM58.62,61.24H90.2V86.81A136.72,136.72,0,0,1,69,84.87l-7-1.2A85.24,85.24,0,0,1,58.62,61.24Zm9.73,27.53a141.67,141.67,0,0,0,21.85,2v23.7C78.88,113.38,69,103,63.46,87.92Zm25.8,2a141.67,141.67,0,0,0,21.85-2l4.89-.85c-5.58,15.09-15.41,25.47-26.74,26.55Zm21.18-5.9a136.72,136.72,0,0,1-21.18,1.94V61.24h31.58a85.24,85.24,0,0,1-3.43,22.43Zm14.35-27.58a88.42,88.42,0,0,0-3.11-21.7l16.86,2.91a55.12,55.12,0,0,1,4,18.79Zm11.75-23.14-16.16-2.79A54.34,54.34,0,0,0,109.56,6.77,55.53,55.53,0,0,1,141.43,34.15ZM74.79,6.77A54.34,54.34,0,0,0,59.08,31.36L42.92,34.15A55.53,55.53,0,0,1,74.79,6.77ZM42.92,84.38l16.16,2.78a54.43,54.43,0,0,0,15.71,24.6A55.6,55.6,0,0,1,42.92,84.38Zm66.64,27.38a54.43,54.43,0,0,0,15.71-24.6l16.16-2.78A55.6,55.6,0,0,1,109.56,111.76Z"/><path class="cls-3" d="M16.89,77.48a57,57,0,0,0,102.58,34.38A59.25,59.25,0,0,1,39.58,32,57,57,0,0,0,16.89,77.48Z"/><path class="cls-2" d="M74,134.54A57,57,0,0,1,39.58,32a59,59,0,0,1,5.57-8.76,61.44,61.44,0,1,0,83.07,83.07,59,59,0,0,1-8.75,5.58A57,57,0,0,1,74,134.54Z"/><text class="cls-4" transform="matrix(-1, 0, 0, 1, 178.52, 197.34)">ةيبرعلا</text></g></g></svg>