<svg xmlns="http://www.w3.org/2000/svg" xmlns:xlink="http://www.w3.org/1999/xlink" viewBox="0 0 106.16 150.69"><defs><style>.cls-1{font-size:36.54px;font-family:Montserrat-Medium, Montserrat Medium;font-weight:500;}.cls-1,.cls-3{fill:#fff;}.cls-2{fill:none;}.cls-4{opacity:0.5;fill:url(#linear-gradient);}</style><linearGradient id="linear-gradient" x1="64.7" y1="89.96" x2="64.7" y2="2.57" gradientUnits="userSpaceOnUse"><stop offset="0" stop-color="#ffd662"/><stop offset="1" stop-color="#00b8be"/></linearGradient></defs><title>Asset 5</title><g id="Layer_2" data-name="Layer 2"><g id="Layer_1-2" data-name="Layer 1"><text class="cls-1" transform="translate(5.69 141.55) scale(1.03 1)">NEXT</text><path class="cls-2" d="M20.4,32a.71.71,0,0,0-.71.7V55.08h6.13l-1.76-1.75A2.71,2.71,0,0,1,26,48.7H27.8V32Z"/><path class="cls-2" d="M12.93,58.7a.68.68,0,0,0,.15.76L43,89.1a.69.69,0,0,0,1,0l8.08-8L29,58.26H13.58A.67.67,0,0,0,12.93,58.7Z"/><path class="cls-2" d="M31,18.05V48.7H46.52a.15.15,0,0,0,.15-.14V17.35h-15A.7.7,0,0,0,31,18.05Z"/><path class="cls-2" d="M6.4,65a.67.67,0,0,0-.65.44.7.7,0,0,0,.15.76L29,89.1a.69.69,0,0,0,1,0l4.25-4.22L14.18,65Z"/><path class="cls-3" d="M44,89.1a.69.69,0,0,1-1,0L13.08,59.46a.71.71,0,0,1,.5-1.2H29l-3.21-3.18H19.69V32.67a.71.71,0,0,1,.71-.7h7.4V48.7H31V18.05a.7.7,0,0,1,.7-.7h15V14.17H29.93a2.13,2.13,0,0,0-2.13,2.12v12.5H18.64a2.13,2.13,0,0,0-2.13,2.13V55.08H9.31a2.13,2.13,0,0,0-1.5,3.64L11,61.84H2.13a2.07,2.07,0,0,0-2,1.32,2.07,2.07,0,0,0,.47,2.32L28,92.58a2.11,2.11,0,0,0,1.49.62A2.14,2.14,0,0,0,31,92.59l5.51-5.47L42,92.59a2.12,2.12,0,0,0,3,0l9.34-9.27-2.26-2.24Zm-14,0a.69.69,0,0,1-1,0L5.9,66.22a.7.7,0,0,1-.15-.76A.67.67,0,0,1,6.4,65h7.78l20,19.86Z"/><path class="cls-3" d="M106,50.38a2.7,2.7,0,0,0-2.5-1.68H83.09a.14.14,0,0,1-.14-.14V2.71A2.71,2.71,0,0,0,80.24,0H49.38a2.71,2.71,0,0,0-2.71,2.71V48.56a.15.15,0,0,1-.15.14H26a2.71,2.71,0,0,0-1.9,4.63l1.76,1.75L29,58.26l23,22.82,2.26,2.24,8.5,8.42a2.72,2.72,0,0,0,3.81,0l38.73-38.41A2.68,2.68,0,0,0,106,50.38Zm-2.4,1.13L64.82,89.92a.17.17,0,0,1-.21,0L25.86,51.51a.12.12,0,0,1,0-.15.13.13,0,0,1,.13-.09H46.52a2.71,2.71,0,0,0,2.71-2.71V2.71a.15.15,0,0,1,.15-.14H80.24a.14.14,0,0,1,.14.14V48.56a2.72,2.72,0,0,0,2.71,2.71h20.36a.13.13,0,0,1,.13.09A.12.12,0,0,1,103.55,51.51Z"/><path class="cls-4" d="M103.55,51.51,64.82,89.92a.17.17,0,0,1-.21,0L25.86,51.51a.12.12,0,0,1,0-.15.13.13,0,0,1,.13-.09H46.52a2.71,2.71,0,0,0,2.71-2.71V2.71a.15.15,0,0,1,.15-.14H80.24a.14.14,0,0,1,.14.14V48.56a2.72,2.72,0,0,0,2.71,2.71h20.36a.13.13,0,0,1,.13.09A.12.12,0,0,1,103.55,51.51Z"/></g></g></svg>