<?xml version="1.0" standalone="no"?>
<!DOCTYPE svg PUBLIC "-//W3C//DTD SVG 20010904//EN"
 "http://www.w3.org/TR/2001/REC-SVG-20010904/DTD/svg10.dtd">
<svg version="1.0" xmlns="http://www.w3.org/2000/svg"
 width="326.000000pt" height="334.000000pt" viewBox="0 0 326.000000 334.000000"
 preserveAspectRatio="xMidYMid meet">

<g transform="translate(0.000000,334.000000) scale(0.100000,-0.100000)"
fill="#000000" stroke="none">
<path d="M110 2835 l0 -365 365 0 365 0 0 365 0 365 -365 0 -365 0 0 -365z
m620 0 l0 -255 -255 0 -255 0 0 255 0 255 255 0 255 0 0 -255z"/>
<path d="M320 2835 l0 -155 155 0 155 0 0 155 0 155 -155 0 -155 0 0 -155z"/>
<path d="M940 3095 l0 -105 55 0 55 0 0 -50 0 -50 -55 0 -55 0 0 -49 0 -49 53
-4 c28 -1 76 -2 105 0 l52 3 0 100 0 99 50 0 50 0 0 -99 0 -100 53 -3 52 -3 0
-155 0 -155 -50 0 -50 0 -2 50 c-1 28 -2 74 -2 103 l-1 52 -100 0 -100 0 0
-50 0 -50 -55 0 -55 0 0 -105 0 -105 -155 0 -155 0 0 -56 0 -55 -52 3 -53 3
-3 53 -3 52 -99 0 -99 0 -3 -52 -3 -53 -50 0 -50 0 -3 53 -3 52 -50 0 -49 0 0
-105 0 -105 155 0 155 0 0 -50 0 -50 -105 0 -105 0 0 -160 0 -160 55 0 55 0 0
-100 0 -100 103 -1 c56 0 125 -1 152 -2 l50 -2 3 -102 3 -103 -56 0 -55 0 0
-160 0 -160 55 0 55 0 0 55 0 55 50 0 50 0 0 -55 0 -55 105 0 105 0 0 -155 0
-155 55 0 55 0 0 105 0 105 100 0 100 0 0 -50 0 -50 160 0 160 0 0 50 0 50 50
0 50 0 0 50 0 50 50 0 50 0 0 -50 0 -50 55 0 55 0 0 50 0 50 105 0 105 0 0
104 0 105 -52 3 -53 3 -3 103 -3 102 56 0 55 0 0 105 0 105 50 0 50 0 0 -210
0 -210 55 0 55 0 0 -50 0 -50 -55 0 -55 0 0 -105 0 -105 -50 0 -50 0 0 -50 0
-50 50 0 50 0 0 -160 0 -160 55 0 55 0 0 -50 0 -50 -105 0 -105 0 0 49 0 50
-52 3 -53 3 -3 103 -3 102 -49 0 -50 0 0 -50 0 -50 -56 0 -55 0 1 53 c1 28 1
76 1 105 l-1 52 -50 0 -50 0 0 -55 0 -55 -50 0 -50 0 0 -50 0 -50 -55 0 -55 0
0 -55 0 -55 -50 0 -50 0 0 -50 0 -50 -55 0 -55 0 0 50 0 50 -50 0 -50 0 0 -50
0 -50 -50 0 -50 0 0 105 0 105 -55 0 -55 0 0 -105 0 -105 55 0 55 0 0 -50 0
-50 -55 0 -55 0 0 -55 0 -55 55 0 55 0 0 55 0 55 50 0 50 0 0 -55 0 -55 309 0
310 0 3 52 3 53 53 3 52 3 0 50 0 49 106 0 105 0 -1 -52 c-1 -29 -1 -77 -1
-105 l1 -53 204 0 205 0 3 53 3 52 53 3 52 3 0 100 0 99 105 0 105 0 0 -50 0
-50 -55 0 -55 0 0 -105 0 -105 55 0 55 0 0 105 0 105 50 0 50 0 0 -105 0 -105
50 0 50 0 1 53 c0 28 0 76 -1 104 l-1 53 55 0 56 0 0 105 0 105 -55 0 -55 0 0
50 0 50 55 0 55 0 0 55 0 55 -55 0 -55 0 0 50 0 50 55 0 55 0 0 50 0 50 -52 1
c-29 0 -77 0 -105 -1 l-53 -1 0 160 0 161 50 0 50 0 1 53 c0 28 0 98 0 155
l-1 102 55 0 55 0 0 105 0 105 -105 0 -105 0 0 50 0 50 -50 0 -50 0 0 55 0 55
100 0 100 0 0 -55 0 -55 55 0 55 0 0 55 0 55 -55 0 -55 0 0 50 0 50 55 0 55 0
0 105 0 105 -105 0 -105 0 0 -55 0 -55 50 0 50 0 0 -50 0 -50 -100 0 -100 0 0
-50 0 -50 -105 0 -105 0 0 -55 0 -55 50 0 50 0 0 -50 0 -50 105 0 105 0 0 -56
0 -55 -52 1 c-29 1 -99 1 -155 1 l-103 -1 0 -50 0 -50 -56 0 -55 0 1 53 c1 28
1 76 1 105 l-1 52 -99 0 -100 0 -3 -52 -3 -53 -50 0 -50 0 -3 103 -3 102 56 0
55 0 0 55 0 55 100 0 100 0 0 50 0 50 105 0 105 0 0 50 0 50 55 0 55 0 0 55 0
55 -55 0 -55 0 0 -55 0 -55 -102 3 -103 2 -3 53 -3 52 -50 0 -49 0 0 -55 0
-55 -50 0 -50 0 0 55 0 55 -160 0 -160 0 0 50 0 50 55 0 55 0 0 55 0 55 50 0
50 0 0 -55 0 -55 55 0 55 0 0 55 0 55 -55 0 -55 0 0 105 0 105 -50 0 -50 0 0
-105 0 -105 -55 0 -55 0 0 50 0 50 -50 0 -50 0 0 -50 0 -50 -55 0 -55 0 0 -55
0 -55 55 0 55 0 0 -50 0 -50 -55 0 -55 0 0 -55 0 -55 -50 0 -50 0 0 210 0 210
-50 0 -50 0 0 55 0 55 -105 0 -105 0 0 99 0 100 -52 3 -53 3 0 50 0 50 103 3
102 3 0 49 0 50 -155 0 -155 0 0 -50 0 -50 -50 0 -50 0 0 50 0 50 -55 0 -55 0
0 -105z m627 -517 l-2 -103 -50 0 -50 0 -3 103 -3 102 56 0 55 0 -3 -102z
m-417 -53 l0 -55 50 0 50 0 0 -50 0 -50 -50 0 -50 0 0 -155 0 -155 -50 0 -50
0 0 50 0 50 -55 0 -55 0 0 105 0 105 105 0 105 0 0 50 0 50 -50 0 -50 0 0 55
0 55 50 0 50 0 0 -55z m830 0 l0 -55 -50 0 -50 0 0 55 0 55 50 0 50 0 0 -55z
m-1460 -315 l0 -50 55 0 55 0 0 50 0 50 105 0 105 0 0 -50 0 -50 -105 0 -105
0 0 -50 0 -50 -55 0 -55 0 0 -105 0 -105 55 0 55 0 0 50 0 50 49 0 50 0 3 53
3 52 155 0 155 0 2 -50 c1 -27 2 -74 2 -102 l1 -53 100 0 100 0 0 -154 0 -155
53 -3 52 -3 3 -52 3 -53 49 0 49 0 3 53 3 52 53 3 52 3 0 50 0 49 -55 0 -55 0
0 -50 0 -50 -50 0 -50 0 0 50 0 50 50 0 50 0 0 50 0 50 -50 0 -50 0 0 55 0 55
50 0 50 0 0 50 0 50 -50 0 -50 0 0 55 0 55 50 0 50 0 0 50 0 50 -105 0 -105 0
0 50 0 50 210 0 210 0 0 -50 0 -50 -50 0 -50 0 0 -50 0 -50 -55 0 -55 0 0 -55
0 -55 155 0 155 0 1 53 c0 28 0 76 -1 105 l-1 52 55 0 56 0 0 -50 0 -50 50 0
50 0 0 50 0 50 105 0 105 0 0 -105 0 -105 -50 0 -50 0 0 55 0 55 -55 0 -55 0
0 -55 0 -55 -50 0 -50 0 0 -50 0 -49 103 -3 102 -3 0 -50 0 -50 -50 -2 c-27
-1 -74 -2 -102 -2 l-53 -1 0 -50 0 -50 50 0 50 0 0 -105 0 -106 -102 3 -103 3
0 50 0 50 53 3 52 3 0 50 0 49 -55 0 -55 0 0 -50 0 -50 -50 0 -50 0 0 -265 0
-265 -50 0 -50 0 0 55 0 55 -105 0 -105 0 0 -55 0 -55 50 0 50 0 0 -50 0 -50
-105 0 -105 0 0 50 0 50 -100 0 -100 0 0 55 0 55 -160 0 -160 0 0 50 0 50 -50
0 -50 0 0 55 0 55 50 0 50 0 0 50 0 50 105 0 105 0 0 210 0 210 -49 0 -50 0
-3 -52 -3 -53 -52 -3 -53 -3 0 -50 0 -49 55 0 55 0 0 -50 0 -50 -105 0 -105 0
0 100 0 100 -52 1 c-29 0 -99 0 -155 -1 l-103 -1 0 55 0 56 50 0 50 0 0 105 0
105 50 0 50 0 0 50 0 50 -50 0 -50 0 0 50 0 50 50 0 50 0 0 -50z m2400 -675
l0 -105 -50 0 -50 0 0 -50 0 -50 -55 0 -55 0 0 -55 0 -55 55 0 55 0 0 -50 0
-50 -210 0 -210 0 0 50 0 50 -50 0 -50 0 0 105 0 105 50 0 50 0 0 55 0 55 50
0 50 0 0 -55 0 -55 105 0 105 0 0 55 0 55 -50 0 -50 0 0 50 0 50 155 0 155 0
0 -105z m-1040 -310 l0 -105 -55 0 -54 0 0 97 c0 53 2 100 5 105 3 4 27 8 55
8 l49 0 0 -105z m728 -367 l-3 -153 -152 -3 -153 -3 0 156 0 155 155 0 156 0
-3 -152z m312 -53 l0 -105 -106 0 -105 0 3 53 3 52 53 3 52 3 0 50 0 49 50 0
50 0 0 -105z m-312 -257 l-3 -53 -52 -3 -53 -3 0 -100 0 -99 -50 0 -50 0 0
155 0 155 106 0 105 0 -3 -52z m412 -53 l0 -105 -50 0 -50 0 0 105 0 105 50 0
50 0 0 -105z m-1450 -105 l0 -100 -55 0 -55 0 0 100 0 100 55 0 55 0 0 -100z
m200 0 l0 -100 -50 0 -50 0 0 100 0 100 50 0 50 0 0 -100z"/>
<path d="M730 1900 l0 -50 55 0 55 0 0 50 0 50 -55 0 -55 0 0 -50z"/>
<path d="M1460 1795 l0 -55 55 0 55 0 0 -50 0 -50 50 0 50 0 0 50 0 50 -50 0
-50 0 0 55 0 55 -55 0 -55 0 0 -55z"/>
<path d="M1050 1485 l0 -55 50 0 50 0 0 55 0 55 -50 0 -50 0 0 -55z"/>
<path d="M1460 1380 l0 -50 55 0 55 0 0 50 0 50 -55 0 -55 0 0 -50z"/>
<path d="M730 1275 l0 -55 160 0 160 0 0 -50 0 -50 155 0 155 0 0 49 0 50 -52
3 -53 3 -3 53 -3 52 -260 0 -259 0 0 -55z"/>
<path d="M2500 1275 l0 -55 55 0 55 0 0 55 0 55 -55 0 -55 0 0 -55z"/>
<path d="M2400 860 l0 -50 50 0 50 0 0 50 0 50 -50 0 -50 0 0 -50z"/>
<path d="M1670 3150 l0 -50 -49 0 -50 0 -3 -52 -3 -53 -52 -3 -53 -3 0 -50 0
-49 155 0 155 0 0 -49 0 -50 53 -3 c28 -2 76 -1 105 0 l52 4 0 49 0 49 55 0
55 0 0 49 0 50 -52 3 -53 3 0 50 0 50 103 3 102 3 0 -106 0 -105 55 0 55 0 0
155 0 155 -315 0 -315 0 0 -50z m210 -105 l0 -55 50 0 50 0 0 -50 0 -50 -105
0 -104 0 0 97 c0 53 2 100 5 105 3 4 27 8 55 8 l49 0 0 -55z"/>
<path d="M2400 2835 l0 -365 365 0 365 0 0 365 0 365 -365 0 -365 0 0 -365z
m620 0 l0 -255 -255 0 -255 0 0 255 0 255 255 0 255 0 0 -255z"/>
<path d="M2610 2835 l0 -155 155 0 155 0 0 155 0 155 -155 0 -155 0 0 -155z"/>
<path d="M110 1485 l0 -55 50 0 50 0 0 55 0 55 -50 0 -50 0 0 -55z"/>
<path d="M110 1275 l0 -55 50 0 50 0 0 55 0 55 -50 0 -50 0 0 -55z"/>
<path d="M319 1278 c0 -29 0 -77 1 -105 l1 -53 -55 0 -56 0 0 -55 0 -55 105 0
105 0 0 160 0 160 -50 0 -50 0 -1 -52z"/>
<path d="M110 545 l0 -365 365 0 365 0 0 365 0 365 -365 0 -365 0 0 -365z
m620 0 l0 -255 -255 0 -255 0 0 255 0 255 255 0 255 0 0 -255z"/>
<path d="M320 545 l0 -155 155 0 155 0 0 155 0 155 -155 0 -155 0 0 -155z"/>
<path d="M1250 650 l0 -50 55 0 55 0 0 50 0 50 -55 0 -55 0 0 -50z"/>
</g>
</svg>
