<svg xmlns="http://www.w3.org/2000/svg" xmlns:xlink="http://www.w3.org/1999/xlink" viewBox="0 0 192.13 209.47"><defs><style>.cls-1{font-size:36.54px;font-family:Montserrat-Medium, Montserrat;font-weight:500;}.cls-1,.cls-3{fill:#fff;}.cls-2{opacity:0.5;fill:url(#linear-gradient);}</style><linearGradient id="linear-gradient" x1="111.09" y1="100.1" x2="111.09" y2="41.44" gradientTransform="translate(0.19 -0.3) rotate(0.16)" gradientUnits="userSpaceOnUse"><stop offset="0" stop-color="#ffd662"/><stop offset="1" stop-color="#00b8be"/></linearGradient></defs><title>Asset 2</title><g id="Layer_2" data-name="Layer 2"><g id="Layer_1-2" data-name="Layer 1"><text class="cls-1" transform="translate(0 156.01)">READY TO<tspan x="28.83" y="43.85">INVEST</tspan></text><ellipse class="cls-2" cx="111.09" cy="70.77" rx="29.32" ry="29.33" transform="translate(-0.19 0.3) rotate(-0.16)"/><path class="cls-3" d="M120.08,39.47l-1-.3,0-1.09A39.35,39.35,0,1,0,78.42,78.7l1.09,0,.3,1.05a32.55,32.55,0,1,0,40.27-40.32Zm-5.85-10.6a35.7,35.7,0,0,1,1.46,7.87l.13,1.76-1.76-.16A32.17,32.17,0,0,0,100.55,40l-2,.67,0-2.06a50.64,50.64,0,0,0-1-9l-.35-1.79h16.68ZM89.92,4.72a36.42,36.42,0,0,1,21.61,17.65l1.18,2.21H96.36l-.33-1A70.42,70.42,0,0,0,88.23,7L86.07,3.57Zm5.42,34.64q0,1.1-.06,2.16l0,.8-.69.42A32.2,32.2,0,0,0,87.9,48l-.44.44H64.88l-.21-1.24A44.69,44.69,0,0,1,65.22,29l.26-1.16H93.85L94.12,29A46.83,46.83,0,0,1,95.34,39.36ZM77.57,3.29l.71,0c.9,0,1.82,0,2.72,0l.71,0,.43.56A71.77,71.77,0,0,1,92.25,22.58l.71,2H66.38l.71-2a73.81,73.81,0,0,1,10-18.73ZM47.79,22.37A36.47,36.47,0,0,1,69.4,4.72l3.86-1.15L71.1,7a70.42,70.42,0,0,0-7.8,16.57l-.33,1H46.61ZM44.41,47.22a35.73,35.73,0,0,1-.87-7.86A36.16,36.16,0,0,1,45.1,28.87l.32-1.06H62.1l-.36,1.79a50.64,50.64,0,0,0-1,9.76,49.34,49.34,0,0,0,.56,7.31l.25,1.72H44.67ZM69.4,74A36.12,36.12,0,0,1,46.52,53.72l-.91-2.1H62.29l.29,1.12a69.51,69.51,0,0,0,8.52,19l2.16,3.39Zm9.14-3.24c0,.43,0,.87,0,1.3l.19,5-2.91-4a67.78,67.78,0,0,1-9.66-19.44l-.59-1.94h19L83.25,53.9A32.53,32.53,0,0,0,78.54,70.77Zm32.55,29.33a29.33,29.33,0,1,1,29.32-29.33A29.36,29.36,0,0,1,111.09,100.1Z"/><path class="cls-3" d="M115.69,69.17a25.39,25.39,0,0,1-6.62-3.11,3,3,0,0,1-.84-3,3.85,3.85,0,0,1,2.59-3,6.08,6.08,0,0,1,5.49.83,1.61,1.61,0,1,0,1.94-2.58,9.34,9.34,0,0,0-3.11-1.47L114,56.55V54.77a1.62,1.62,0,1,0-3.23,0v1.91l-1,.33a7.07,7.07,0,0,0-4.7,5.49,6.16,6.16,0,0,0,2,6.1,27.24,27.24,0,0,0,7.54,3.61,4.27,4.27,0,0,1,3,5,5.3,5.3,0,0,1-5.25,4.46c-2.68,0-3.59-.13-5.71-1.51a1.57,1.57,0,0,0-.88-.27,1.24,1.24,0,0,0-.33,0,1.53,1.53,0,0,0-1,.69,1.62,1.62,0,0,0,.46,2.24,10.63,10.63,0,0,0,4.59,1.89l1.29.19v2a1.62,1.62,0,0,0,3.23,0V84.78l1-.34a8.65,8.65,0,0,0,5.77-6.74A7.53,7.53,0,0,0,115.69,69.17Z"/></g></g></svg>