<svg xmlns="http://www.w3.org/2000/svg" xmlns:xlink="http://www.w3.org/1999/xlink" viewBox="0 0 151.68 208.99"><defs><style>.cls-1{font-size:36.54px;font-family:Montserrat-Medium, Montserrat Medium;font-weight:500;}.cls-1,.cls-3{fill:#fff;}.cls-2{opacity:0.5;fill:url(#linear-gradient);}</style><linearGradient id="linear-gradient" x1="90.86" y1="100.1" x2="90.86" y2="41.44" gradientTransform="translate(0.19 -0.25) rotate(0.16)" gradientUnits="userSpaceOnUse"><stop offset="0" stop-color="#ffd662"/><stop offset="1" stop-color="#00b8be"/></linearGradient></defs><title>Asset 3</title><g id="Layer_2" data-name="Layer 2"><g id="Layer_1-2" data-name="Layer 1"><text class="cls-1" transform="translate(0 156.01)">READY TO<tspan x="22.18" y="43.85">INVEST</tspan></text><ellipse class="cls-2" cx="90.86" cy="70.77" rx="29.32" ry="29.33" transform="translate(-0.19 0.25) rotate(-0.16)"/><path class="cls-3" d="M99.85,39.47l-1-.3,0-1.09A39.35,39.35,0,1,0,58.19,78.7l1.09,0,.31,1.05A32.55,32.55,0,1,0,99.85,39.47ZM94,28.87a36.27,36.27,0,0,1,1.45,7.87l.13,1.76-1.76-.16A32.19,32.19,0,0,0,80.32,40l-1.95.67,0-2.06a50.64,50.64,0,0,0-1-9L77,27.81H93.68ZM69.7,4.72A36.44,36.44,0,0,1,91.31,22.37l1.18,2.21H76.14l-.33-1A71.23,71.23,0,0,0,68,7L65.84,3.57Zm5.41,34.64c0,.73,0,1.45,0,2.16l0,.8-.7.42A32.47,32.47,0,0,0,67.67,48l-.44.44H44.66l-.22-1.24a46.32,46.32,0,0,1-.67-7.79A46.89,46.89,0,0,1,45,29l.27-1.16H73.63L73.9,29A47.4,47.4,0,0,1,75.11,39.36ZM57.34,3.29l.71,0q1.37-.06,2.73,0l.7,0,.43.56A71.69,71.69,0,0,1,72,22.58l.71,2H46.16l.71-2A73.48,73.48,0,0,1,56.92,3.85ZM27.57,22.37A36.44,36.44,0,0,1,49.18,4.72L53,3.57,50.87,7a71.23,71.23,0,0,0-7.8,16.57l-.33,1H26.39ZM24.18,47.22a36.3,36.3,0,0,1,.69-18.35l.33-1.06H41.87l-.35,1.79a50.64,50.64,0,0,0-1,9.76,49.31,49.31,0,0,0,.55,7.31l.26,1.72H24.44ZM49.18,74A36.12,36.12,0,0,1,26.3,53.72l-.92-2.1H42.06l.3,1.12a69.23,69.23,0,0,0,8.51,19L53,75.15Zm9.13-3.24c0,.43,0,.87,0,1.3l.2,5-2.91-4A67.74,67.74,0,0,1,46,53.56l-.58-1.94h19L63,53.9A32.44,32.44,0,0,0,58.31,70.77ZM90.86,100.1a29.33,29.33,0,1,1,29.32-29.33A29.36,29.36,0,0,1,90.86,100.1Z"/><path class="cls-3" d="M95.47,69.17a25.39,25.39,0,0,1-6.62-3.11,3,3,0,0,1-.84-3,3.85,3.85,0,0,1,2.58-3,6.1,6.1,0,0,1,5.5.83A1.61,1.61,0,1,0,98,58.31a9.36,9.36,0,0,0-3.1-1.47l-1.12-.29V54.77a1.62,1.62,0,1,0-3.23,0v1.91l-1,.33a7.07,7.07,0,0,0-4.7,5.49,6.18,6.18,0,0,0,2,6.1,27.52,27.52,0,0,0,7.54,3.61,4.25,4.25,0,0,1,3,5,5.29,5.29,0,0,1-5.24,4.46c-2.68,0-3.6-.13-5.71-1.51a1.57,1.57,0,0,0-.88-.27,1.27,1.27,0,0,0-.34,0A1.61,1.61,0,0,0,84,81.8a1.63,1.63,0,0,0,.7,1,10.59,10.59,0,0,0,4.59,1.89l1.28.19v2a1.62,1.62,0,0,0,3.23,0V84.78l1-.34a8.65,8.65,0,0,0,5.77-6.74A7.54,7.54,0,0,0,95.47,69.17Z"/></g></g></svg>