<svg xmlns="http://www.w3.org/2000/svg" xmlns:xlink="http://www.w3.org/1999/xlink" viewBox="0 0 1767.65 654.49"><defs><style>.cls-1{fill:none;}.cls-2{font-size:156px;font-family:Gilroy-Medium;font-weight:500;}.cls-12,.cls-2,.cls-5{fill:#fff;}.cls-3{clip-path:url(#clip-path);}.cls-4{clip-path:url(#clip-path-2);}.cls-6{clip-path:url(#clip-path-3);}.cls-7{clip-path:url(#clip-path-4);}.cls-8{clip-path:url(#clip-path-5);}.cls-9{clip-path:url(#clip-path-6);}.cls-10{clip-path:url(#clip-path-7);}.cls-11{clip-path:url(#clip-path-8);}.cls-12{font-size:108px;font-family:Montserrat-Arabic-Regular, Montserrat-Arabic;}</style><clipPath id="clip-path" transform="translate(-959.73 -471.85)"><polygon class="cls-1" points="959.73 635.94 959.73 828.41 1062.68 828.41 1062.68 761 1086.97 761.01 1086.97 675.47 1120.42 675.33 1120.42 635.94 959.73 635.94"/></clipPath><clipPath id="clip-path-2" transform="translate(-959.73 -471.85)"><rect class="cls-1" width="2608.83" height="1467.47"/></clipPath><clipPath id="clip-path-3" transform="translate(-959.73 -471.85)"><rect class="cls-1" x="1152.96" y="635.94" width="100.48" height="192.47"/></clipPath><clipPath id="clip-path-4" transform="translate(-959.73 -471.85)"><rect class="cls-1" x="1526.65" y="635.94" width="100.48" height="192.47"/></clipPath><clipPath id="clip-path-5" transform="translate(-959.73 -471.85)"><polygon class="cls-1" points="960.18 635.83 960.18 828.3 1063.12 828.3 1063.12 760.89 1087.41 760.9 1087.41 675.35 1120.86 675.22 1120.86 635.83 960.18 635.83"/></clipPath><clipPath id="clip-path-6" transform="translate(-959.73 -471.85)"><rect class="cls-1" x="960.18" y="582.17" width="715.65" height="313.99"/></clipPath><clipPath id="clip-path-7" transform="translate(-959.73 -471.85)"><rect class="cls-1" x="1153.4" y="635.83" width="100.48" height="192.47"/></clipPath><clipPath id="clip-path-8" transform="translate(-959.73 -471.85)"><rect class="cls-1" x="1527.1" y="635.83" width="100.48" height="192.47"/></clipPath></defs><title>Asset 5</title><g id="Layer_2" data-name="Layer 2"><g id="Layer_1-2" data-name="Layer 1"><text class="cls-2" transform="translate(0 132.6)">INVEST IN</text><g class="cls-3"><g class="cls-4"><rect class="cls-5" x="8.71" y="164.09" width="40.72" height="191.61"/><polygon class="cls-5" points="53.46 203.61 24.48 203.61 24.48 164.09 153.34 164.09 153.34 355.71 151.18 355.71 151.18 203.61 146.87 203.61 146.87 355.71 144.72 355.71 144.72 203.61 140.41 203.61 140.41 355.71 138.01 355.71 138.01 203.61 133.7 203.61 133.7 355.71 131.54 355.71 131.54 203.61 127.23 203.61 127.23 355.71 125.08 355.71 125.08 203.61 120.77 203.61 120.77 355.71 118.61 355.71 118.61 203.61 114.3 203.61 114.3 355.71 111.9 355.71 111.9 203.61 107.59 203.61 107.59 355.71 105.44 355.71 105.44 203.61 101.12 203.61 101.12 355.71 98.97 355.71 98.97 203.61 94.66 203.61 94.66 355.71 92.5 355.71 92.5 203.61 88.19 203.61 88.19 355.71 85.8 355.71 85.8 203.61 81.48 203.61 81.48 355.71 79.33 355.71 79.33 203.61 75.02 203.61 75.02 355.71 73.1 355.71 73.1 203.61 68.79 203.61 68.79 355.71 66.63 355.71 66.63 203.61 62.32 203.61 62.32 355.71 59.93 355.71 59.93 203.61 55.62 203.61 55.62 355.71 53.46 355.71 53.46 203.61"/><rect class="cls-5" x="49.22" y="249.96" width="103.43" height="39.19"/></g></g><g class="cls-6"><polygon class="cls-5" points="293.34 317.05 322.32 317.05 322.32 356.57 193.47 356.57 193.47 164.95 195.62 164.95 195.62 317.05 199.93 317.05 199.93 164.95 202.09 164.95 202.09 317.05 206.4 317.05 206.4 164.95 208.79 164.95 208.79 317.05 213.11 317.05 213.11 164.95 215.26 164.95 215.26 317.05 219.57 317.05 219.57 164.95 221.73 164.95 221.73 317.05 226.04 317.05 226.04 164.95 228.19 164.95 228.19 317.05 232.51 317.05 232.51 164.95 234.9 164.95 234.9 317.05 239.21 317.05 239.21 164.95 241.37 164.95 241.37 317.05 245.68 317.05 245.68 164.95 247.84 164.95 247.84 317.05 252.15 317.05 252.15 164.95 254.3 164.95 254.3 317.05 258.61 317.05 258.61 164.95 261.01 164.95 261.01 317.05 265.32 317.05 265.32 164.95 267.48 164.95 267.48 317.05 271.79 317.05 271.79 164.95 273.7 164.95 273.7 317.05 278.01 317.05 278.01 164.95 280.17 164.95 280.17 317.05 284.48 317.05 284.48 164.95 286.88 164.95 286.88 317.05 291.19 317.05 291.19 164.95 293.34 164.95 293.34 317.05"/></g><g class="cls-7"><polygon class="cls-5" points="667.03 203.61 696.02 203.61 696.02 164.09 567.16 164.09 567.16 355.71 569.31 355.71 569.31 203.61 573.62 203.61 573.62 355.71 575.78 355.71 575.78 203.61 580.09 203.61 580.09 355.71 582.49 355.71 582.49 203.61 586.8 203.61 586.8 355.71 588.95 355.71 588.95 203.61 593.26 203.61 593.26 355.71 595.42 355.71 595.42 203.61 599.73 203.61 599.73 355.71 601.89 355.71 601.89 203.61 606.2 203.61 606.2 355.71 608.59 355.71 608.59 203.61 612.9 203.61 612.9 355.71 615.06 355.71 615.06 203.61 619.37 203.61 619.37 355.71 621.53 355.71 621.53 203.61 625.84 203.61 625.84 355.71 627.99 355.71 627.99 203.61 632.31 203.61 632.31 355.71 634.7 355.71 634.7 203.61 639.01 203.61 639.01 355.71 641.17 355.71 641.17 203.61 645.48 203.61 645.48 355.71 647.39 355.71 647.39 203.61 651.71 203.61 651.71 355.71 653.86 355.71 653.86 203.61 658.17 203.61 658.17 355.71 660.57 355.71 660.57 203.61 664.88 203.61 664.88 355.71 667.03 355.71 667.03 203.61"/></g><path class="cls-5" d="M1482.73,636.18l.25,98a83.63,83.63,0,0,1-3.91,27.14q-1,2.7-6.12,14.67a89.38,89.38,0,0,1-33.25,39.37,96.88,96.88,0,0,1-54.52,16.13q-37.41,0-64.79-26.65-28.61-27.87-28.6-68.94v2.45h.24V708.55h2.2v29.84h4.16v-45h2.2v45h4.64V680.92h2.2v57.72h4.65V670.9h2.2v67.74h4.65V664.3h2.2v74.34h4.4v-80H1328v80h4.4V652.32h2.45v99.75a45.87,45.87,0,0,0,4.4,10.27V649.14h2.2V766a55.3,55.3,0,0,0,4.64,5.62V646h2.2V774.08a41.42,41.42,0,0,0,4.65,4.15V642.29h2.2V779.94a25.82,25.82,0,0,0,4.64,3.18V639.85h2.2V784.34c2,1,3.51,1.72,4.65,2.2V637.65h2.2V787.52q2.94,1,4.65,1.47v-153h2.2V789.72l4.4.74V635.94h2.44v155.5h4.4V635.94h68.95Zm-93.64,155.26h4.65V674.81h-4.65Zm11.49-.74V674.81h-4.64V791.44c1.14-.17,2.69-.41,4.64-.74m6.85-115.89h-4.64V790a27.83,27.83,0,0,0,4.64-1.23Zm6.84,110.76V674.81h-4.64v113c1.14-.49,2.69-1.23,4.64-2.2m2.21-110.76V784.34a25.29,25.29,0,0,0,4.64-3.17V674.81Zm6.84,104.4a28.08,28.08,0,0,0,4.4-4.4v-100h-4.4Zm11.25-104.4h-4.4v97.07a43,43,0,0,0,4.4-7.44Zm2.44,86.31c1.79-3,2.69-5.62,2.69-7.8V674.81H1437Z" transform="translate(-959.73 -471.85)"/><g class="cls-8"><g class="cls-9"><rect class="cls-5" x="9.16" y="163.98" width="40.72" height="191.61"/><polygon class="cls-5" points="53.91 203.5 24.92 203.5 24.92 163.98 153.78 163.98 153.78 355.59 151.63 355.59 151.63 203.5 147.32 203.5 147.32 355.59 145.16 355.59 145.16 203.5 140.85 203.5 140.85 355.59 138.46 355.59 138.46 203.5 134.14 203.5 134.14 355.59 131.99 355.59 131.99 203.5 127.68 203.5 127.68 355.59 125.52 355.59 125.52 203.5 121.21 203.5 121.21 355.59 119.05 355.59 119.05 203.5 114.74 203.5 114.74 355.59 112.35 355.59 112.35 203.5 108.04 203.5 108.04 355.59 105.88 355.59 105.88 203.5 101.57 203.5 101.57 355.59 99.41 355.59 99.41 203.5 95.1 203.5 95.1 355.59 92.95 355.59 92.95 203.5 88.64 203.5 88.64 355.59 86.24 355.59 86.24 203.5 81.93 203.5 81.93 355.59 79.77 355.59 79.77 203.5 75.46 203.5 75.46 355.59 73.55 355.59 73.55 203.5 69.23 203.5 69.23 355.59 67.08 355.59 67.08 203.5 62.77 203.5 62.77 355.59 60.37 355.59 60.37 203.5 56.06 203.5 56.06 355.59 53.91 355.59 53.91 203.5"/><rect class="cls-5" x="49.67" y="249.85" width="103.43" height="39.19"/></g></g><g class="cls-10"><polygon class="cls-5" points="293.79 316.93 322.77 316.93 322.77 356.45 193.91 356.45 193.91 164.84 196.07 164.84 196.07 316.93 200.38 316.93 200.38 164.84 202.53 164.84 202.53 316.93 206.84 316.93 206.84 164.84 209.24 164.84 209.24 316.93 213.55 316.93 213.55 164.84 215.71 164.84 215.71 316.93 220.02 316.93 220.02 164.84 222.17 164.84 222.17 316.93 226.48 316.93 226.48 164.84 228.64 164.84 228.64 316.93 232.95 316.93 232.95 164.84 235.35 164.84 235.35 316.93 239.66 316.93 239.66 164.84 241.81 164.84 241.81 316.93 246.13 316.93 246.13 164.84 248.28 164.84 248.28 316.93 252.59 316.93 252.59 164.84 254.75 164.84 254.75 316.93 259.06 316.93 259.06 164.84 261.45 164.84 261.45 316.93 265.76 316.93 265.76 164.84 267.92 164.84 267.92 316.93 272.23 316.93 272.23 164.84 274.15 164.84 274.15 316.93 278.46 316.93 278.46 164.84 280.62 164.84 280.62 316.93 284.93 316.93 284.93 164.84 287.32 164.84 287.32 316.93 291.63 316.93 291.63 164.84 293.79 164.84 293.79 316.93"/></g><g class="cls-11"><polygon class="cls-5" points="667.48 203.5 696.46 203.5 696.46 163.98 567.6 163.98 567.6 355.59 569.76 355.59 569.76 203.5 574.07 203.5 574.07 355.59 576.23 355.59 576.23 203.5 580.54 203.5 580.54 355.59 582.93 355.59 582.93 203.5 587.24 203.5 587.24 355.59 589.4 355.59 589.4 203.5 593.71 203.5 593.71 355.59 595.87 355.59 595.87 203.5 600.18 203.5 600.18 355.59 602.33 355.59 602.33 203.5 606.64 203.5 606.64 355.59 609.04 355.59 609.04 203.5 613.35 203.5 613.35 355.59 615.5 355.59 615.5 203.5 619.82 203.5 619.82 355.59 621.97 355.59 621.97 203.5 626.28 203.5 626.28 355.59 628.44 355.59 628.44 203.5 632.75 203.5 632.75 355.59 635.14 355.59 635.14 203.5 639.46 203.5 639.46 355.59 641.61 355.59 641.61 203.5 645.92 203.5 645.92 355.59 647.84 355.59 647.84 203.5 652.15 203.5 652.15 355.59 654.31 355.59 654.31 203.5 658.62 203.5 658.62 355.59 661.01 355.59 661.01 203.5 665.32 203.5 665.32 355.59 667.48 355.59 667.48 203.5"/></g><g class="cls-9"><path class="cls-5" d="M1483.18,636.07l.24,98a83.63,83.63,0,0,1-3.91,27.14q-1,2.7-6.11,14.67a89.3,89.3,0,0,1-33.25,39.36,96.83,96.83,0,0,1-54.52,16.14q-37.41,0-64.79-26.65-28.62-27.87-28.61-68.95v2.46h.24V708.44h2.21v29.84h4.15v-45h2.2v45h4.65V680.81h2.2v57.71h4.64V670.79h2.2v67.73h4.65V664.19h2.2v74.33h4.4v-80h2.45v80h4.4V652.21h2.44V752a46.81,46.81,0,0,0,4.4,10.27V649h2.2V765.9a56.47,56.47,0,0,0,4.65,5.62V645.85h2.2V774a40,40,0,0,0,4.64,4.16V642.18h2.2V779.83a25.92,25.92,0,0,0,4.65,3.18V639.74h2.2V784.23q2.92,1.47,4.64,2.2V637.54h2.2V787.41q2.94,1,4.65,1.47v-153h2.2V789.61l4.4.73V635.83h2.45V791.32h4.4V635.83h68.94Zm-93.64,155.25h4.64V674.7h-4.64Zm11.49-.73V674.7h-4.65V791.32c1.14-.16,2.69-.41,4.65-.73m6.84-115.89h-4.64V789.86a27.34,27.34,0,0,0,4.64-1.23Zm6.85,110.75V674.7h-4.64V787.65c1.14-.48,2.68-1.22,4.64-2.2m2.2-110.75V784.23a25.31,25.31,0,0,0,4.64-3.18V674.7Zm6.84,104.4a28.61,28.61,0,0,0,4.41-4.4v-100h-4.41ZM1435,674.7h-4.4v97.06a42.67,42.67,0,0,0,4.4-7.43Zm2.45,86.31q2.67-4.53,2.69-7.8V674.7h-2.69Z" transform="translate(-959.73 -471.85)"/></g><text class="cls-12" transform="translate(1120.31 260.13)">موسبيا ميرول</text><path class="cls-5" d="M2599.18,925.17a46.06,46.06,0,0,0,14.17,33.92,48.65,48.65,0,0,0,68.46,0A46.07,46.07,0,0,0,2696,925.17v-2.63h-1.62v-9.73a71.8,71.8,0,0,0-3.64-9.52v19.25h-2V900.05a36.41,36.41,0,0,0-3.65-5.06v27.55h-1.82V892.76c-1.62-1.62-2.83-2.76-3.64-3.44v33.22h-1.83V887.7a21.43,21.43,0,0,0-3.85-2.63v37.47h-1.82V883.85l-3.64-1.82v40.51h-1.83V881.22a9.71,9.71,0,0,0-1.92-.91c-.88-.34-1.52-.58-1.93-.71v42.94h-2V879.19c-.41-.13-1-.3-1.82-.5s-1.42-.37-1.83-.51v44.36h-1.82V878a24.44,24.44,0,0,0-3.65-.41v45h-1.82V877.37H2646v45.17h-1.82V877.37c-.4,0-1,0-1.82.1a8.8,8.8,0,0,0-1.82.3v44.77h-1.83V878.18a25.71,25.71,0,0,0-3.64.81v43.55h-2V879.6l-3.64,1.21v41.73h-1.83V881.62l-3.64,1.83v39.09h-1.83V884.66a42.56,42.56,0,0,0-3.64,2.43v35.45h-2v-34c-.4.4-1,1-1.82,1.72s-1.42,1.32-1.82,1.72v30.59h-1.83V894a56.89,56.89,0,0,0-3.64,4.86v23.7h-1.82V901.88a49.89,49.89,0,0,0-3.65,7.69v13h-2.63Zm-22.89-37.67a77.58,77.58,0,0,1,23.7-28q21.66-15.81,47.39-15.8,33.23,0,56.61,23.69t23.4,57.32q0,33.63-23.4,57.32t-56.61,23.7q-33.23,0-56.61-23.7t-23.39-57.32A80.65,80.65,0,0,1,2576.29,887.5Z" transform="translate(-959.73 -471.85)"/><path class="cls-5" d="M2646.15,824.49a19.24,19.24,0,1,0-19.24-19.24A19.36,19.36,0,0,0,2646.15,824.49Z" transform="translate(-959.73 -471.85)"/><circle class="cls-5" cx="1351.35" cy="575.1" r="19.24"/><path class="cls-5" d="M2195,1011.7a13.35,13.35,0,0,0,2.23-6.48H2195Zm-11.34,15a23.17,23.17,0,0,0,3.64-3.65v-17.82h-3.64Zm-28.36,10.13h3.85v-31.6h-3.85Zm9.52-.61v-31H2161v31.6C2162,1036.68,2163.23,1036.48,2164.85,1036.21Zm5.67-31h-3.85v30.38a22.88,22.88,0,0,0,3.85-1Zm5.67,26.74v-26.74h-3.84v28.56C2173.29,1033.37,2174.57,1032.77,2176.19,1032Zm1.83-26.74v25.72a21.17,21.17,0,0,0,3.84-2.63v-23.09Zm15,0h-3.64v15.39a34.64,34.64,0,0,0,3.64-6.16Zm39.91-32,.2,16.2a69.45,69.45,0,0,1-3.24,22.48q-.81,2.24-5.07,12.16a74,74,0,0,1-27.54,32.61,80.25,80.25,0,0,1-45.17,13.36q-31,0-53.67-22.07-23.7-23.1-23.7-57.12V973.62h.2v-5.46h1.83v5.46h3.44v-18H2082v18h3.85V945.27h1.82v28.56h3.85V937h1.82v36.87h3.85V931.49H2099v42.34h3.64v-47h2v47h3.64V921.57h2v82.64a38.39,38.39,0,0,0,3.64,8.5V918.94h1.83v96.81a47,47,0,0,0,3.84,4.66V916.3h1.83v106.14a33,33,0,0,0,3.85,3.44V913.27h1.82v114a21.43,21.43,0,0,0,3.85,2.63V911.24h1.82v119.7c1.62.81,2.9,1.42,3.85,1.83V909.42h1.82v124.16c1.62.54,2.9.94,3.85,1.21V908h1.82v127.4l3.65.61V908h2v128.82h3.65V908h1.82v65h55.3Z" transform="translate(-959.73 -471.85)"/><path class="cls-5" d="M2345.94,907.63a55.77,55.77,0,0,1,3.24,18.83,46,46,0,0,1-3.24,16.41ZM2335,890.41q1.22,1.22,3.64,4.05V955l-3.64,3.65Zm-44.16-15a16.58,16.58,0,0,1,1.82.21h1.83v98h-3.65Zm-10.94,98v-98h3.65v98.24A23.31,23.31,0,0,1,2279.91,973.45Zm9.12.21h-3.65V875.42H2289Zm40.3-10.53V886a16.69,16.69,0,0,1,3.65,2.83v71.7A22.68,22.68,0,0,1,2329.33,963.13Zm-3.64,2.32c-.81.48-1.42.85-1.82,1.12V882.51c.4.27,1,.64,1.82,1.12a11.92,11.92,0,0,0,1.82.91v79.8C2327.11,964.61,2326.5,965,2325.69,965.45Zm-5.47,2.84c-.81.34-1.42.57-1.82.71V880.08c.4.14,1,.37,1.82.71s1.42.57,1.82.71v85.88A11.21,11.21,0,0,1,2320.22,968.29Zm-7.29,2.53V878.26a25.85,25.85,0,0,1,3.64,1v90.34Zm-5.47,1.42v-95.4a25.59,25.59,0,0,0,3.65.81v93.78A25.59,25.59,0,0,0,2307.46,972.24Zm-9.32-96.41H2300v97.42a24.92,24.92,0,0,1-3.65.2V875.63A11.5,11.5,0,0,1,2298.14,875.83Zm3.85,97.22V876c1.62.27,2.77.47,3.44.61v95.8C2304.76,972.57,2303.61,972.78,2302,973.05Zm42.13-26.13a33.43,33.43,0,0,1-3.65,5.67v-55.7a44.35,44.35,0,0,1,3.65,6.28Zm-60.76,58.54h8.91q44,0,68.26-24.92,21.66-22.27,21.67-55.29,0-36.87-25.93-59.75-24.92-22.08-61.77-22.08h-16.81l-.21,32h.61v98h-.81v32Z" transform="translate(-959.73 -471.85)"/><polygon class="cls-5" points="1480.38 500.51 1455.88 500.51 1455.88 533.93 1564.85 533.93 1564.85 371.9 1563.02 371.9 1563.02 500.51 1559.38 500.51 1559.38 371.9 1557.55 371.9 1557.55 500.51 1553.91 500.51 1553.91 371.9 1551.88 371.9 1551.88 500.51 1548.24 500.51 1548.24 371.9 1546.41 371.9 1546.41 500.51 1542.77 500.51 1542.77 371.9 1540.94 371.9 1540.94 500.51 1537.3 500.51 1537.3 371.9 1535.48 371.9 1535.48 500.51 1531.83 500.51 1531.83 371.9 1529.81 371.9 1529.81 500.51 1526.16 500.51 1526.16 371.9 1524.34 371.9 1524.34 500.51 1520.69 500.51 1520.69 371.9 1518.87 371.9 1518.87 500.51 1515.22 500.51 1515.22 371.9 1513.4 371.9 1513.4 500.51 1509.75 500.51 1509.75 371.9 1507.73 371.9 1507.73 500.51 1504.08 500.51 1504.08 371.9 1502.26 371.9 1502.26 500.51 1498.61 500.51 1498.61 371.9 1496.99 371.9 1496.99 500.51 1493.35 500.51 1493.35 371.9 1491.52 371.9 1491.52 500.51 1487.88 500.51 1487.88 371.9 1485.85 371.9 1485.85 500.51 1482.21 500.51 1482.21 371.9 1480.38 371.9 1480.38 500.51"/><rect class="cls-5" x="1202.79" y="500.7" width="486.54" height="33.51"/><rect class="cls-5" x="1478.81" y="558.15" width="87.87" height="33.3"/><rect class="cls-5" x="1150.99" y="621.19" width="87.87" height="33.3"/></g></g></svg>